# Rhino

mtllib 19.mtl
usemtl Material.003
v 0 0 0
v 1 0 0
v 0 0 -1
v 1 0 -1
v 0 0 -0.099999904632568359
v 1 0 -0.099999904632568359
v 0 0.89999997615814209 -0.90000009536743164
v 0 1 -0.90000009536743164
v 1 0.89999997615814209 -0.90000009536743164
v 1 1 -0.90000009536743164
v 0 1 -1
v 1 1 -1
v 0 1 -0.90000009536743164
v 1 1 -0.90000009536743164
v 0 0.80000001192092896 -0.80000019073486328
v 0 0.89999997615814209 -0.80000019073486328
v 1 0.80000001192092896 -0.80000019073486328
v 1 0.89999997615814209 -0.80000019073486328
v 0 0.89999997615814209 -0.90000009536743164
v 1 0.89999997615814209 -0.90000009536743164
v 0 0.89999997615814209 -0.80000019073486328
v 1 0.89999997615814209 -0.80000019073486328
v 0 0.69999998807907104 -0.69999980926513672
v 0 0.80000001192092896 -0.69999980926513672
v 1 0.69999998807907104 -0.69999980926513672
v 1 0.80000001192092896 -0.69999980926513672
v 0 0.80000001192092896 -0.80000019073486328
v 1 0.80000001192092896 -0.80000019073486328
v 0 0.80000001192092896 -0.69999980926513672
v 1 0.80000001192092896 -0.69999980926513672
v 0 0.60000002384185791 -0.59999990463256836
v 0 0.69999998807907104 -0.59999990463256836
v 1 0.60000002384185791 -0.59999990463256836
v 1 0.69999998807907104 -0.59999990463256836
v 0 0.69999998807907104 -0.69999980926513672
v 1 0.69999998807907104 -0.69999980926513672
v 0 0.69999998807907104 -0.59999990463256836
v 1 0.69999998807907104 -0.59999990463256836
v 0 0.5 -0.5
v 0 0.60000002384185791 -0.5
v 1 0.5 -0.5
v 1 0.60000002384185791 -0.5
v 0 0.60000002384185791 -0.59999990463256836
v 1 0.60000002384185791 -0.59999990463256836
v 0 0.60000002384185791 -0.5
v 1 0.60000002384185791 -0.5
v 0 0.40000000596046448 -0.40000009536743164
v 0 0.5 -0.40000009536743164
v 1 0.40000000596046448 -0.40000009536743164
v 1 0.5 -0.40000009536743164
v 0 0.5 -0.5
v 1 0.5 -0.5
v 0 0.5 -0.40000009536743164
v 1 0.5 -0.40000009536743164
v 0 0.30000001192092896 -0.30000019073486328
v 0 0.40000000596046448 -0.30000019073486328
v 1 0.30000001192092896 -0.30000019073486328
v 1 0.40000000596046448 -0.30000019073486328
v 0 0.40000000596046448 -0.40000009536743164
v 1 0.40000000596046448 -0.40000009536743164
v 0 0.40000000596046448 -0.30000019073486328
v 1 0.40000000596046448 -0.30000019073486328
v 0 0.20000000298023224 -0.19999980926513672
v 0 0.30000001192092896 -0.19999980926513672
v 1 0.20000000298023224 -0.19999980926513672
v 1 0.30000001192092896 -0.19999980926513672
v 0 0.30000001192092896 -0.30000019073486328
v 1 0.30000001192092896 -0.30000019073486328
v 0 0.30000001192092896 -0.19999980926513672
v 1 0.30000001192092896 -0.19999980926513672
v 0 0.10000000149011612 -0.099999904632568359
v 0 0.20000000298023224 -0.099999904632568359
v 1 0.10000000149011612 -0.099999904632568359
v 1 0.20000000298023224 -0.099999904632568359
v 0 0.20000000298023224 -0.19999980926513672
v 1 0.20000000298023224 -0.19999980926513672
v 0 0.20000000298023224 -0.099999904632568359
v 1 0.20000000298023224 -0.099999904632568359
v 0 0 0
v 0 0.10000000149011612 0
v 1 0 0
v 1 0.10000000149011612 0
v 0 0.10000000149011612 -0.099999904632568359
v 1 0.10000000149011612 -0.099999904632568359
v 0 0.10000000149011612 0
v 1 0.10000000149011612 0
v 0 0 -1
v 0 0 0
v 0 1 -0.90000009536743164
v 0 0.89999997615814209 -0.90000009536743164
v 0 1 -1
v 0 0.89999997615814209 -0.80000019073486328
v 0 0.80000001192092896 -0.80000019073486328
v 0 0.80000001192092896 -0.69999980926513672
v 0 0.69999998807907104 -0.69999980926513672
v 0 0.69999998807907104 -0.59999990463256836
v 0 0.60000002384185791 -0.59999990463256836
v 0 0.60000002384185791 -0.5
v 0 0.5 -0.5
v 0 0.5 -0.40000009536743164
v 0 0.40000000596046448 -0.40000009536743164
v 0 0.40000000596046448 -0.30000019073486328
v 0 0.30000001192092896 -0.30000019073486328
v 0 0.30000001192092896 -0.19999980926513672
v 0 0.20000000298023224 -0.19999980926513672
v 0 0.20000000298023224 -0.099999904632568359
v 0 0.10000000149011612 -0.099999904632568359
v 0 0.10000000149011612 0
v 0 0 -0.099999904632568359
v 1 0 -1
v 1 0 0
v 1 1 -0.90000009536743164
v 1 0.89999997615814209 -0.90000009536743164
v 1 1 -1
v 1 0.89999997615814209 -0.80000019073486328
v 1 0.80000001192092896 -0.80000019073486328
v 1 0.80000001192092896 -0.69999980926513672
v 1 0.69999998807907104 -0.69999980926513672
v 1 0.69999998807907104 -0.59999990463256836
v 1 0.60000002384185791 -0.59999990463256836
v 1 0.60000002384185791 -0.5
v 1 0.5 -0.5
v 1 0.5 -0.40000009536743164
v 1 0.40000000596046448 -0.40000009536743164
v 1 0.40000000596046448 -0.30000019073486328
v 1 0.30000001192092896 -0.30000019073486328
v 1 0.30000001192092896 -0.19999980926513672
v 1 0.20000000298023224 -0.19999980926513672
v 1 0.20000000298023224 -0.099999904632568359
v 1 0.10000000149011612 -0.099999904632568359
v 1 0.10000000149011612 0
v 1 0 -0.099999904632568359
v 0 0 -1
v 1 0 -1
v 0 1 -1
v 1 1 -1
vt 0.38999998569488525 0.625
vt 0.38999998569488525 0.51499998569488525
vt 0.38999998569488525 0.625
vt 0.38999998569488525 0.51499998569488525
vt 0.38999998569488525 0.625
vt 0.38999998569488525 0.51499998569488525
vt 0.60000002384185791 0.625
vt 0.61000001430511475 0.625
vt 0.60000002384185791 0.51499998569488525
vt 0.61000001430511475 0.51499998569488525
vt 0.61000001430511475 0.625
vt 0.61000001430511475 0.51499998569488525
vt 0.61000001430511475 0.625
vt 0.61000001430511475 0.51499998569488525
vt 0.57499998807907104 0.625
vt 0.60000002384185791 0.625
vt 0.57499998807907104 0.51499998569488525
vt 0.60000002384185791 0.51499998569488525
vt 0.60066801309585571 0.625
vt 0.60000002384185791 0.51499998569488525
vt 0.60066801309585571 0.625
vt 0.60000002384185791 0.51499998569488525
vt 0.55000001192092896 0.625
vt 0.57499998807907104 0.625
vt 0.55000001192092896 0.51499998569488525
vt 0.57499998807907104 0.51499998569488525
vt 0.57733798027038574 0.625
vt 0.57499998807907104 0.51499998569488525
vt 0.57733798027038574 0.625
vt 0.57499998807907104 0.51499998569488525
vt 0.52500003576278687 0.625
vt 0.55000001192092896 0.625
vt 0.52500003576278687 0.51499998569488525
vt 0.55000001192092896 0.51499998569488525
vt 0.55000001192092896 0.625
vt 0.55000001192092896 0.51499998569488525
vt 0.55000001192092896 0.625
vt 0.55000001192092896 0.51499998569488525
vt 0.5 0.625
vt 0.52500003576278687 0.625
vt 0.5 0.51499998569488525
vt 0.52500003576278687 0.51499998569488525
vt 0.52500003576278687 0.625
vt 0.52500003576278687 0.51499998569488525
vt 0.52500003576278687 0.625
vt 0.52500003576278687 0.51499998569488525
vt 0.47499999403953552 0.625
vt 0.5 0.625
vt 0.47499999403953552 0.51499998569488525
vt 0.5 0.51499998569488525
vt 0.5 0.625
vt 0.5 0.51499998569488525
vt 0.5 0.625
vt 0.5 0.51499998569488525
vt 0.44999998807907104 0.625
vt 0.47499999403953552 0.625
vt 0.44999998807907104 0.51499998569488525
vt 0.47499999403953552 0.51499998569488525
vt 0.47499999403953552 0.625
vt 0.47499999403953552 0.51499998569488525
vt 0.47499999403953552 0.625
vt 0.47499999403953552 0.51499998569488525
vt 0.42500001192092896 0.625
vt 0.44999998807907104 0.625
vt 0.42499998211860657 0.51499998569488525
vt 0.44999998807907104 0.51499998569488525
vt 0.44999998807907104 0.625
vt 0.44999998807907104 0.51499998569488525
vt 0.44999998807907104 0.625
vt 0.44999998807907104 0.51499998569488525
vt 0.40000000596046448 0.625
vt 0.42500001192092896 0.625
vt 0.39999997615814209 0.51499998569488525
vt 0.42499998211860657 0.51499998569488525
vt 0.42266219854354858 0.625
vt 0.42499998211860657 0.51499998569488525
vt 0.42266219854354858 0.625
vt 0.42499998211860657 0.51499998569488525
vt 0.38999998569488525 0.625
vt 0.40000000596046448 0.625
vt 0.38999998569488525 0.51499998569488525
vt 0.39999997615814209 0.51499998569488525
vt 0.39933204650878906 0.625
vt 0.39999997615814209 0.51499998569488525
vt 0.39933204650878906 0.625
vt 0.39999997615814209 0.51499998569488525
vt 0.38999998569488525 0.625
vt 0.38999998569488525 0.625
vt 0.61000001430511475 0.625
vt 0.60000002384185791 0.625
vt 0.61000001430511475 0.625
vt 0.60000002384185791 0.625
vt 0.57499998807907104 0.625
vt 0.57499998807907104 0.625
vt 0.55000001192092896 0.625
vt 0.55000001192092896 0.625
vt 0.52500003576278687 0.625
vt 0.52500003576278687 0.625
vt 0.5 0.625
vt 0.5 0.625
vt 0.47499999403953552 0.625
vt 0.47499999403953552 0.625
vt 0.44999998807907104 0.625
vt 0.44999998807907104 0.625
vt 0.42500001192092896 0.625
vt 0.42500001192092896 0.625
vt 0.40000000596046448 0.625
vt 0.40000000596046448 0.625
vt 0.38999998569488525 0.625
vt 0.38999998569488525 0.51499998569488525
vt 0.38999998569488525 0.51499998569488525
vt 0.61000001430511475 0.51499998569488525
vt 0.60000002384185791 0.51499998569488525
vt 0.61000001430511475 0.51499998569488525
vt 0.60000002384185791 0.51499998569488525
vt 0.57499998807907104 0.51499998569488525
vt 0.57499998807907104 0.51499998569488525
vt 0.55000001192092896 0.51499998569488525
vt 0.55000001192092896 0.51499998569488525
vt 0.52500003576278687 0.51499998569488525
vt 0.52500003576278687 0.51499998569488525
vt 0.5 0.51499998569488525
vt 0.5 0.51499998569488525
vt 0.47499999403953552 0.51499998569488525
vt 0.47499999403953552 0.51499998569488525
vt 0.44999998807907104 0.51499998569488525
vt 0.44999998807907104 0.51499998569488525
vt 0.42499998211860657 0.51499998569488525
vt 0.42499998211860657 0.51499998569488525
vt 0.39999997615814209 0.51499998569488525
vt 0.39999997615814209 0.51499998569488525
vt 0.38999998569488525 0.51499998569488525
vt 0.38999998569488525 0.625
vt 0.38999998569488525 0.51499998569488525
vt 0.61000001430511475 0.625
vt 0.61000001430511475 0.51499998569488525
vn 0 -1 0
vn 0 -1 0
vn 0 -1 0
vn 0 -1 0
vn 0 -1 0
vn 0 -1 0
vn 0 0 1
vn 0 0 1
vn 0 0 1
vn 0 0 1
vn 0 1 0
vn 0 1 0
vn 0 1 0
vn 0 1 0
vn 0 0 1
vn 0 0 1
vn 0 0 1
vn 0 0 1
vn 0 1 0
vn 0 1 0
vn 0 1 0
vn 0 1 0
vn 0 0 1
vn 0 0 1
vn 0 0 1
vn 0 0 1
vn 0 1 0
vn 0 1 0
vn 0 1 0
vn 0 1 0
vn 0 0 1
vn 0 0 1
vn 0 0 1
vn 0 0 1
vn 0 1 0
vn 0 1 0
vn 0 1 0
vn 0 1 0
vn 0 0 1
vn 0 0 1
vn 0 0 1
vn 0 0 1
vn 0 1 0
vn 0 1 0
vn 0 1 0
vn 0 1 0
vn 0 0 1
vn 0 0 1
vn 0 0 1
vn 0 0 1
vn 0 1 0
vn 0 1 0
vn 0 1 0
vn 0 1 0
vn 0 0 1
vn 0 0 1
vn 0 0 1
vn 0 0 1
vn 0 1 0
vn 0 1 0
vn 0 1 0
vn 0 1 0
vn 0 0 1
vn 0 0 1
vn 0 0 1
vn 0 0 1
vn 0 1 0
vn 0 1 0
vn 0 1 0
vn 0 1 0
vn 0 0 1
vn 0 0 1
vn 0 0 1
vn 0 0 1
vn 0 1 0
vn 0 1 0
vn 0 1 0
vn 0 1 0
vn 0 0 1
vn 0 0 1
vn 0 0 1
vn 0 0 1
vn 0 1 0
vn 0 1 0
vn 0 1 0
vn 0 1 0
vn -1 0 0
vn -1 0 0
vn -1 0 0
vn -1 0 0
vn -1 0 0
vn -1 0 0
vn -1 0 0
vn -1 0 0
vn -1 0 0
vn -1 0 0
vn -1 0 0
vn -1 0 0
vn -1 0 0
vn -1 0 0
vn -1 0 0
vn -1 0 0
vn -1 0 0
vn -1 0 0
vn -1 0 0
vn -1 0 0
vn -1 0 0
vn -1 0 0
vn -1 0 0
vn 1 0 0
vn 1 0 0
vn 1 0 0
vn 1 0 0
vn 1 0 0
vn 1 0 0
vn 1 0 0
vn 1 0 0
vn 1 0 0
vn 1 0 0
vn 1 0 0
vn 1 0 0
vn 1 0 0
vn 1 0 0
vn 1 0 0
vn 1 0 0
vn 1 0 0
vn 1 0 0
vn 1 0 0
vn 1 0 0
vn 1 0 0
vn 1 0 0
vn 1 0 0
vn 0 0 -1
vn 0 0 -1
vn 0 0 -1
vn 0 0 -1
f 2/2/2 1/1/1 5/5/5 6/6/6
f 3/3/3 4/4/4 6/6/6 5/5/5
f 8/8/8 7/7/7 9/9/9 10/10/10
f 12/12/12 11/11/11 13/13/13 14/14/14
f 16/16/16 15/15/15 17/17/17 18/18/18
f 20/20/20 19/19/19 21/21/21 22/22/22
f 24/24/24 23/23/23 25/25/25 26/26/26
f 28/28/28 27/27/27 29/29/29 30/30/30
f 32/32/32 31/31/31 33/33/33 34/34/34
f 36/36/36 35/35/35 37/37/37 38/38/38
f 40/40/40 39/39/39 41/41/41 42/42/42
f 44/44/44 43/43/43 45/45/45 46/46/46
f 48/48/48 47/47/47 49/49/49 50/50/50
f 52/52/52 51/51/51 53/53/53 54/54/54
f 56/56/56 55/55/55 57/57/57 58/58/58
f 60/60/60 59/59/59 61/61/61 62/62/62
f 64/64/64 63/63/63 65/65/65 66/66/66
f 68/68/68 67/67/67 69/69/69 70/70/70
f 72/72/72 71/71/71 73/73/73 74/74/74
f 76/76/76 75/75/75 77/77/77 78/78/78
f 80/80/80 79/79/79 81/81/81 82/82/82
f 84/84/84 83/83/83 85/85/85 86/86/86
f 90/90/90 89/89/89 91/91/91
f 92/92/92 90/90/90 93/93/93
f 87/87/87 90/90/90 91/91/91
f 95/95/95 93/93/93 87/87/87
f 90/90/90 87/87/87 93/93/93
f 95/95/95 94/94/94 93/93/93
f 97/97/97 95/95/95 87/87/87
f 99/99/99 97/97/97 87/87/87
f 95/95/95 97/97/97 96/96/96
f 98/98/98 97/97/97 99/99/99
f 101/101/101 100/100/100 99/99/99
f 101/101/101 87/87/87 103/103/103
f 105/105/105 104/104/104 103/103/103
f 101/101/101 103/103/103 102/102/102
f 103/103/103 87/87/87 105/105/105
f 107/107/107 106/106/106 105/105/105
f 109/109/109 107/107/107 105/105/105
f 109/109/109 88/88/88 108/108/108 107/107/107
f 105/105/105 87/87/87 109/109/109
f 99/99/99 87/87/87 101/101/101
f 113/113/113 114/114/114 112/112/112
f 116/116/116 113/113/113 115/115/115
f 110/110/110 114/114/114 113/113/113
f 116/116/116 110/110/110 113/113/113
f 110/110/110 116/116/116 118/118/118
f 117/117/117 118/118/118 116/116/116
f 120/120/120 110/110/110 118/118/118
f 122/122/122 110/110/110 120/120/120
f 118/118/118 119/119/119 120/120/120
f 121/121/121 122/122/122 120/120/120
f 124/124/124 122/122/122 123/123/123
f 124/124/124 126/126/126 110/110/110
f 128/128/128 126/126/126 127/127/127
f 124/124/124 125/125/125 126/126/126
f 126/126/126 128/128/128 110/110/110
f 130/130/130 128/128/128 129/129/129
f 132/132/132 128/128/128 130/130/130
f 131/131/131 111/111/111 132/132/132 130/130/130
f 128/128/128 132/132/132 110/110/110
f 122/122/122 124/124/124 110/110/110
f 134/134/134 133/133/133 135/135/135 136/136/136
