# Rhino

mtllib 3.mtl
usemtl Material.003
v 1 1 -1
v 1 0 -1
v 1 1 0
v 1 0 0
v 0 0.20000000298023224 0
v 0 0 0
v 0 0.20000000298023224 -1
v 0 0 -1
v 1 0 -1
v 0 0 -1
v 1 0 0
v 0 0 0
v 0.80000001192092896 0 0
v 0.80000001192092896 0 -1
v 0.5 0.20000000298023224 -1
v 0.5573151707649231 0.20552593469619751 -0.66666650772094727
v 0.5573151707649231 0.20552593469619751 -0.33333349227905273
v 0.61397314071655273 0.2224930077791214 -0.66666650772094727
v 0.61397314071655273 0.2224930077791214 -0.33333349227905273
v 0.66738587617874146 0.25103819370269775 -0.66666650772094727
v 0.66738587617874146 0.25103819370269775 -0.33333349227905273
v 0.71432995796203613 0.29008892178535461 -0.66666650772094727
v 0.71432995796203613 0.29008892178535461 -0.33333349227905273
v 0.75235944986343384 0.3377818763256073 -0.66666650772094727
v 0.75235944986343384 0.3377818763256073 -0.33333349227905273
v 0.77948415279388428 0.39096516370773315 -0.66666650772094727
v 0.77948415279388428 0.39096516370773315 -0.33333349227905273
v 0.79512035846710205 0.44611150026321411 -0.66666650772094727
v 0.79512035846710205 0.44611150026321411 -0.33333349227905273
v 0.80000001192092896 0.5 -1
v 0.80000001192092896 0.5 0
v 0.77893650531768799 0.38957157731056213 0
v 0.7121320366859436 0.2878679633140564 0
v 0.61042839288711548 0.22106350958347321 0
v 0.80000001192092896 0.5 -0.75
v 0.80000001192092896 0.5 -0.5
v 0.80000001192092896 0.5 -0.25
v 0.5 0.20000000298023224 0
v 0.5 0.20000000298023224 -0.25
v 0.5 0.20000000298023224 -0.5
v 0.5 0.20000000298023224 -0.75
v 0.61042839288711548 0.22106350958347321 -1
v 0.7121320366859436 0.2878679633140564 -1
v 0.77893650531768799 0.38957157731056213 -1
v 0.5 0.20000000298023224 0
v 0.5 0.20000000298023224 -1
v 0 0.20000000298023224 0
v 0 0.20000000298023224 -1
v 0.5 0.20000000298023224 -0.75
v 0.5 0.20000000298023224 -0.5
v 0.5 0.20000000298023224 -0.25
v 0 0.80000001192092896 -1
v 0 1 -1
v 0 0.80000001192092896 0
v 0 1 0
v 1 1 0
v 0 1 0
v 1 1 -1
v 0 1 -1
v 0.5 0.80000001192092896 0
v 0.5573151707649231 0.79447406530380249 -0.33333349227905273
v 0.5573151707649231 0.79447406530380249 -0.66666650772094727
v 0.61397314071655273 0.77750700712203979 -0.33333349227905273
v 0.61397314071655273 0.77750700712203979 -0.66666650772094727
v 0.66738587617874146 0.74896180629730225 -0.33333349227905273
v 0.66738587617874146 0.74896180629730225 -0.66666650772094727
v 0.71432995796203613 0.709911048412323 -0.33333349227905273
v 0.71432995796203613 0.709911048412323 -0.66666650772094727
v 0.75235944986343384 0.66221809387207031 -0.33333349227905273
v 0.75235944986343384 0.66221809387207031 -0.66666650772094727
v 0.77948415279388428 0.60903483629226685 -0.33333349227905273
v 0.77948415279388428 0.60903483629226685 -0.66666650772094727
v 0.79512035846710205 0.55388849973678589 -0.33333349227905273
v 0.79512035846710205 0.55388849973678589 -0.66666650772094727
v 0.80000001192092896 0.5 0
v 0.80000001192092896 0.5 -1
v 0.80000001192092896 0.5 -0.25
v 0.80000001192092896 0.5 -0.5
v 0.80000001192092896 0.5 -0.75
v 0.77893650531768799 0.61042839288711548 -1
v 0.7121320366859436 0.7121320366859436 -1
v 0.61042839288711548 0.77893650531768799 -1
v 0.5 0.80000001192092896 -1
v 0.5 0.80000001192092896 -0.75
v 0.5 0.80000001192092896 -0.5
v 0.5 0.80000001192092896 -0.25
v 0.61042839288711548 0.77893650531768799 0
v 0.7121320366859436 0.7121320366859436 0
v 0.77893650531768799 0.61042839288711548 0
v 0.5 0.80000001192092896 -1
v 0.5 0.80000001192092896 0
v 0 0.80000001192092896 -1
v 0 0.80000001192092896 0
v 0.5 0.80000001192092896 -0.25
v 0.5 0.80000001192092896 -0.5
v 0.5 0.80000001192092896 -0.75
v 1 1 0
v 1 0 0
v 0 1 0
v 0 0 0
v 0.80000001192092896 0.5 0
v 0.77893650531768799 0.38957157731056213 0
v 0.7121320366859436 0.2878679633140564 0
v 0.61042839288711548 0.22106350958347321 0
v 0.5 0.20000000298023224 0
v 0 0.20000000298023224 0
v 0 0.80000001192092896 0
v 0.5 0.80000001192092896 0
v 0.61042839288711548 0.77893650531768799 0
v 0.7121320366859436 0.7121320366859436 0
v 0.77893650531768799 0.61042839288711548 0
v 0.80000001192092896 0 0
v 0 1 -1
v 0 0 -1
v 1 1 -1
v 1 0 -1
v 0 0.20000000298023224 -1
v 0.5 0.20000000298023224 -1
v 0.61042839288711548 0.22106350958347321 -1
v 0.7121320366859436 0.2878679633140564 -1
v 0.77893650531768799 0.38957157731056213 -1
v 0.80000001192092896 0.5 -1
v 0.77893650531768799 0.61042839288711548 -1
v 0.7121320366859436 0.7121320366859436 -1
v 0.61042839288711548 0.77893650531768799 -1
v 0.5 0.80000001192092896 -1
v 0 0.80000001192092896 -1
v 0.80000001192092896 0 -1
vt 0.6099998950958252 0.4849998950958252
vt 0.39000004529953003 0.48500007390975952
vt 0.6099998950958252 0.4849998950958252
vt 0.39000004529953003 0.48500007390975952
vt 0.4261910617351532 0.28520417213439941
vt 0.38999992609024048 0.28472417593002319
vt 0.42619109153747559 0.28520417213439941
vt 0.38999992609024048 0.28472417593002319
vt 0.39000004529953003 0.48500007390975952
vt 0.38999992609024048 0.28472417593002319
vt 0.39000004529953003 0.48500007390975952
vt 0.38999992609024048 0.28472417593002319
vt 0.39000004529953003 0.48500007390975952
vt 0.39000004529953003 0.48500007390975952
vt 0.42500001192092896 0.48500004410743713
vt 0.42638149857521057 0.48500004410743713
vt 0.42638149857521057 0.48500004410743713
vt 0.43062326312065125 0.48500004410743713
vt 0.43062326312065125 0.48500004410743713
vt 0.43775954842567444 0.48500004410743713
vt 0.43775954842567444 0.48500004410743713
vt 0.44752222299575806 0.48500001430511475
vt 0.44752222299575806 0.48500001430511475
vt 0.45944547653198242 0.48500001430511475
vt 0.45944547653198242 0.48500001430511475
vt 0.47274127602577209 0.48500001430511475
vt 0.47274127602577209 0.48500001430511475
vt 0.48652786016464233 0.48499998450279236
vt 0.48652786016464233 0.48499998450279236
vt 0.49999997019767761 0.48499998450279236
vt 0.49999997019767761 0.48499998450279236
vt 0.47239288687705994 0.48500001430511475
vt 0.44696700572967529 0.48500001430511475
vt 0.43026590347290039 0.48500004410743713
vt 0.49999997019767761 0.48499998450279236
vt 0.49999997019767761 0.48499998450279236
vt 0.49999997019767761 0.48499998450279236
vt 0.42500001192092896 0.48500004410743713
vt 0.42500001192092896 0.48500004410743713
vt 0.42500001192092896 0.48500004410743713
vt 0.42500001192092896 0.48500004410743713
vt 0.43026590347290039 0.48500004410743713
vt 0.44696700572967529 0.48500001430511475
vt 0.47239288687705994 0.48500001430511475
vt 0.42500001192092896 0.48500004410743713
vt 0.42500001192092896 0.48500004410743713
vt 0.4261910617351532 0.28520417213439941
vt 0.42619109153747559 0.28520417213439941
vt 0.42500001192092896 0.48500004410743713
vt 0.42500001192092896 0.48500004410743713
vt 0.42500001192092896 0.48500004410743713
vt 0.57500040531158447 0.37500059604644775
vt 0.6099998950958252 0.37499994039535522
vt 0.57500046491622925 0.37500059604644775
vt 0.6099998950958252 0.37499994039535522
vt 0.6099998950958252 0.4849998950958252
vt 0.6099998950958252 0.37499994039535522
vt 0.6099998950958252 0.4849998950958252
vt 0.6099998950958252 0.37499994039535522
vt 0.57499992847442627 0.48499992489814758
vt 0.57361841201782227 0.48499992489814758
vt 0.57361841201782227 0.48499992489814758
vt 0.56937664747238159 0.48499992489814758
vt 0.56937664747238159 0.48499992489814758
vt 0.5622403621673584 0.48499992489814758
vt 0.5622403621673584 0.48499992489814758
vt 0.55247771739959717 0.48499995470046997
vt 0.55247771739959717 0.48499995470046997
vt 0.5405544638633728 0.48499995470046997
vt 0.5405544638633728 0.48499995470046997
vt 0.52725863456726074 0.48499995470046997
vt 0.52725863456726074 0.48499995470046997
vt 0.51347208023071289 0.48499998450279236
vt 0.51347208023071289 0.48499998450279236
vt 0.49999997019767761 0.48499998450279236
vt 0.49999997019767761 0.48499998450279236
vt 0.49999997019767761 0.48499998450279236
vt 0.49999997019767761 0.48499998450279236
vt 0.49999997019767761 0.48499998450279236
vt 0.5276070237159729 0.48499995470046997
vt 0.55303293466567993 0.48499995470046997
vt 0.56973403692245483 0.48499992489814758
vt 0.57499992847442627 0.48499992489814758
vt 0.57499992847442627 0.48499992489814758
vt 0.57499992847442627 0.48499992489814758
vt 0.57499992847442627 0.48499992489814758
vt 0.56973403692245483 0.48499992489814758
vt 0.55303293466567993 0.48499995470046997
vt 0.5276070237159729 0.48499995470046997
vt 0.57499992847442627 0.48499992489814758
vt 0.57499992847442627 0.48499992489814758
vt 0.57500040531158447 0.37500059604644775
vt 0.57500046491622925 0.37500059604644775
vt 0.57499992847442627 0.48499992489814758
vt 0.57499992847442627 0.48499992489814758
vt 0.57499992847442627 0.48499992489814758
vt 0.6099998950958252 0.4849998950958252
vt 0.39000004529953003 0.48500007390975952
vt 0.6099998950958252 0.37499994039535522
vt 0.38999992609024048 0.28472417593002319
vt 0.49999997019767761 0.48499998450279236
vt 0.47239288687705994 0.48500001430511475
vt 0.44696700572967529 0.48500001430511475
vt 0.43026590347290039 0.48500004410743713
vt 0.42500001192092896 0.48500004410743713
vt 0.4261910617351532 0.28520417213439941
vt 0.57499980926513672 0.37500002980232239
vt 0.57499992847442627 0.48499992489814758
vt 0.56973403692245483 0.48499992489814758
vt 0.55303293466567993 0.48499995470046997
vt 0.5276070237159729 0.48499995470046997
vt 0.39000004529953003 0.48500007390975952
vt 0.6099998950958252 0.37499994039535522
vt 0.38999992609024048 0.28472417593002319
vt 0.6099998950958252 0.4849998950958252
vt 0.39000004529953003 0.48500007390975952
vt 0.42619109153747559 0.28520417213439941
vt 0.42500001192092896 0.48500004410743713
vt 0.43026590347290039 0.48500004410743713
vt 0.44696700572967529 0.48500001430511475
vt 0.47239288687705994 0.48500001430511475
vt 0.49999997019767761 0.48499998450279236
vt 0.5276070237159729 0.48499995470046997
vt 0.55303293466567993 0.48499995470046997
vt 0.56973403692245483 0.48499992489814758
vt 0.57499992847442627 0.48499992489814758
vt 0.57499974966049194 0.37500002980232239
vt 0.39000004529953003 0.48500007390975952
vn 1 0 0
vn 1 0 0
vn 1 0 0
vn 1 0 0
vn -1 0 0
vn -1 0 0
vn -1 0 0
vn -1 0 0
vn 0 -1 0
vn 0 -1 0
vn 0 -1 0
vn 0 -1 0
vn 0 -1 0
vn 0 -1 0
vn 0 1 0
vn -0.19105048477649689 0.98158019781112671 0
vn -0.19105048477649689 0.98158019781112671 0
vn -0.37991040945053101 0.92502325773239136 0
vn -0.37991040945053101 0.92502325773239136 0
vn -0.55795282125473022 0.82987266778945923 0
vn -0.55795282125473022 0.82987266778945923 0
vn -0.71443325281143188 0.69970357418060303 0
vn -0.71443325281143188 0.69970357418060303 0
vn -0.8411981463432312 0.54072701930999756 0
vn -0.8411981463432312 0.54072701930999756 0
vn -0.93161392211914062 0.36344948410987854 0
vn -0.93161392211914062 0.36344948410987854 0
vn -0.98373454809188843 0.17962829768657684 0
vn -0.98373454809188843 0.17962829768657684 0
vn -1 0 0
vn -1 0 0
vn -0.92978829145431519 0.36809471249580383 0
vn -0.70710676908493042 0.70710676908493042 0
vn -0.36809471249580383 0.92978829145431519 0
vn -1 0 0
vn -1 0 0
vn -1 0 0
vn 0 1 0
vn 0 1 0
vn 0 1 0
vn 0 1 0
vn -0.36809471249580383 0.92978829145431519 0
vn -0.70710676908493042 0.70710676908493042 0
vn -0.92978829145431519 0.36809471249580383 0
vn 0 1 0
vn 0 1 0
vn 0 1 0
vn 0 1 0
vn 0 1 0
vn 0 1 0
vn 0 1 0
vn -1 0 0
vn -1 0 0
vn -1 0 0
vn -1 0 0
vn 0 1 0
vn 0 1 0
vn 0 1 0
vn 0 1 0
vn 0 -1 0
vn -0.19105048477649689 -0.98158019781112671 0
vn -0.19105048477649689 -0.98158019781112671 0
vn -0.37991040945053101 -0.92502325773239136 0
vn -0.37991040945053101 -0.92502325773239136 0
vn -0.55795282125473022 -0.82987266778945923 0
vn -0.55795282125473022 -0.82987266778945923 0
vn -0.71443325281143188 -0.69970357418060303 0
vn -0.71443325281143188 -0.69970357418060303 0
vn -0.8411981463432312 -0.54072701930999756 0
vn -0.8411981463432312 -0.54072701930999756 0
vn -0.93161392211914062 -0.36344948410987854 0
vn -0.93161392211914062 -0.36344948410987854 0
vn -0.98373454809188843 -0.17962829768657684 0
vn -0.98373454809188843 -0.17962829768657684 0
vn -1 0 0
vn -1 0 0
vn -1 0 0
vn -1 0 0
vn -1 0 0
vn -0.92978829145431519 -0.36809471249580383 0
vn -0.70710676908493042 -0.70710676908493042 0
vn -0.36809471249580383 -0.92978829145431519 0
vn 0 -1 0
vn 0 -1 0
vn 0 -1 0
vn 0 -1 0
vn -0.36809471249580383 -0.92978829145431519 0
vn -0.70710676908493042 -0.70710676908493042 0
vn -0.92978829145431519 -0.36809471249580383 0
vn 0 -1 0
vn 0 -1 0
vn 0 -1 0
vn 0 -1 0
vn 0 -1 0
vn 0 -1 0
vn 0 -1 0
vn 0 0 1
vn 0 0 1
vn 0 0 1
vn 0 0 1
vn 0 0 1
vn 0 0 1
vn 0 0 1
vn 0 0 1
vn 0 0 1
vn 0 0 1
vn 0 0 1
vn 0 0 1
vn 0 0 1
vn 0 0 1
vn 0 0 1
vn 0 0 1
vn 0 0 -1
vn 0 0 -1
vn 0 0 -1
vn 0 0 -1
vn 0 0 -1
vn 0 0 -1
vn 0 0 -1
vn 0 0 -1
vn 0 0 -1
vn 0 0 -1
vn 0 0 -1
vn 0 0 -1
vn 0 0 -1
vn 0 0 -1
vn 0 0 -1
vn 0 0 -1
f 2/2/2 1/1/1 3/3/3 4/4/4
f 6/6/6 5/5/5 7/7/7 8/8/8
f 14/14/14 9/9/9 11/11/11 13/13/13
f 10/10/10 14/14/14 13/13/13 12/12/12
f 19/19/19 18/18/18 16/16/16 17/17/17
f 21/21/21 20/20/20 18/18/18 19/19/19
f 23/23/23 22/22/22 20/20/20 21/21/21
f 25/25/25 24/24/24 22/22/22 23/23/23
f 27/27/27 26/26/26 24/24/24 25/25/25
f 29/29/29 28/28/28 26/26/26 27/27/27
f 41/41/41 16/16/16 15/15/15
f 42/42/42 15/15/15 16/16/16
f 40/40/40 16/16/16 41/41/41
f 42/42/42 18/18/18 20/20/20 43/43/43
f 16/16/16 18/18/18 42/42/42
f 39/39/39 17/17/17 40/40/40
f 17/17/17 16/16/16 40/40/40
f 17/17/17 39/39/39 38/38/38
f 38/38/38 34/34/34 17/17/17
f 34/34/34 21/21/21 19/19/19
f 21/21/21 34/34/34 33/33/33
f 23/23/23 21/21/21 33/33/33
f 17/17/17 34/34/34 19/19/19
f 22/22/22 43/43/43 20/20/20
f 22/22/22 24/24/24 43/43/43
f 44/44/44 43/43/43 24/24/24
f 26/26/26 44/44/44 24/24/24
f 28/28/28 35/35/35 30/30/30
f 28/28/28 44/44/44 26/26/26
f 28/28/28 36/36/36 35/35/35
f 30/30/30 44/44/44 28/28/28
f 32/32/32 25/25/25 23/23/23 33/33/33
f 29/29/29 27/27/27 32/32/32
f 25/25/25 32/32/32 27/27/27
f 37/37/37 36/36/36 29/29/29
f 29/29/29 31/31/31 37/37/37
f 32/32/32 31/31/31 29/29/29
f 36/36/36 28/28/28 29/29/29
f 47/47/47 45/45/45 51/51/51
f 47/47/47 51/51/51 50/50/50
f 49/49/49 48/48/48 50/50/50
f 47/47/47 50/50/50 48/48/48
f 49/49/49 46/46/46 48/48/48
f 53/53/53 52/52/52 54/54/54 55/55/55
f 57/57/57 56/56/56 58/58/58 59/59/59
f 64/64/64 63/63/63 61/61/61 62/62/62
f 66/66/66 65/65/65 63/63/63 64/64/64
f 68/68/68 67/67/67 65/65/65 66/66/66
f 70/70/70 69/69/69 67/67/67 68/68/68
f 72/72/72 71/71/71 69/69/69 70/70/70
f 74/74/74 73/73/73 71/71/71 72/72/72
f 86/86/86 61/61/61 60/60/60
f 87/87/87 60/60/60 61/61/61
f 85/85/85 61/61/61 86/86/86
f 87/87/87 63/63/63 65/65/65 88/88/88
f 61/61/61 63/63/63 87/87/87
f 84/84/84 62/62/62 85/85/85
f 62/62/62 61/61/61 85/85/85
f 62/62/62 84/84/84 83/83/83
f 83/83/83 82/82/82 62/62/62
f 82/82/82 66/66/66 64/64/64
f 66/66/66 82/82/82 81/81/81
f 68/68/68 66/66/66 81/81/81
f 62/62/62 82/82/82 64/64/64
f 67/67/67 88/88/88 65/65/65
f 67/67/67 69/69/69 88/88/88
f 89/89/89 88/88/88 69/69/69
f 71/71/71 89/89/89 69/69/69
f 73/73/73 77/77/77 75/75/75
f 73/73/73 89/89/89 71/71/71
f 73/73/73 78/78/78 77/77/77
f 75/75/75 89/89/89 73/73/73
f 80/80/80 70/70/70 68/68/68 81/81/81
f 74/74/74 72/72/72 80/80/80
f 70/70/70 80/80/80 72/72/72
f 79/79/79 78/78/78 74/74/74
f 74/74/74 76/76/76 79/79/79
f 80/80/80 76/76/76 74/74/74
f 78/78/78 73/73/73 74/74/74
f 92/92/92 90/90/90 96/96/96
f 92/92/92 96/96/96 95/95/95
f 94/94/94 93/93/93 95/95/95
f 92/92/92 95/95/95 93/93/93
f 94/94/94 91/91/91 93/93/93
f 98/98/98 97/97/97 101/101/101
f 111/111/111 101/101/101 97/97/97
f 97/97/97 110/110/110 111/111/111
f 110/110/110 97/97/97 109/109/109
f 103/103/103 112/112/112 98/98/98
f 98/98/98 102/102/102 103/103/103
f 102/102/102 98/98/98 101/101/101
f 104/104/104 112/112/112 103/103/103
f 108/108/108 109/109/109 97/97/97
f 108/108/108 99/99/99 107/107/107
f 108/108/108 97/97/97 99/99/99
f 112/112/112 105/105/105 100/100/100
f 105/105/105 106/106/106 100/100/100
f 104/104/104 105/105/105 112/112/112
f 126/126/126 127/127/127 113/113/113
f 126/126/126 115/115/115 125/125/125
f 115/115/115 126/126/126 113/113/113
f 118/118/118 114/114/114 117/117/117
f 128/128/128 114/114/114 118/118/118
f 119/119/119 128/128/128 118/118/118
f 115/115/115 123/123/123 124/124/124
f 116/116/116 122/122/122 115/115/115
f 123/123/123 115/115/115 122/122/122
f 115/115/115 124/124/124 125/125/125
f 116/116/116 120/120/120 121/121/121
f 120/120/120 116/116/116 128/128/128
f 116/116/116 121/121/121 122/122/122
f 119/119/119 120/120/120 128/128/128
