# Rhino

mtllib 4.mtl
usemtl Material.003
v 1 1 0
v 1 0 0
v 0 1 0
v 0 0 0
v 0 0.20000000298023224 -1
v 0 0 -1
v 1 0.20000000298023224 -1
v 1 0 -1
v 1 0 0
v 1 0 -1
v 0 0 0
v 0 0 -1
v 0 0 -0.19999980926513672
v 1 0 -0.19999980926513672
v 1 0.20000000298023224 -0.5
v 0.66666668653488159 0.20552593469619751 -0.44268465042114258
v 0.3333333432674408 0.20552593469619751 -0.44268465042114258
v 0.66666668653488159 0.2224930077791214 -0.38602685928344727
v 0.3333333432674408 0.2224930077791214 -0.38602685928344727
v 0.66666668653488159 0.25103819370269775 -0.33261394500732422
v 0.3333333432674408 0.25103819370269775 -0.33261394500732422
v 0.66666668653488159 0.29008892178535461 -0.28566980361938477
v 0.3333333432674408 0.29008892178535461 -0.28566980361938477
v 0.66666668653488159 0.3377818763256073 -0.24764060974121094
v 0.3333333432674408 0.3377818763256073 -0.24764060974121094
v 0.66666668653488159 0.39096516370773315 -0.22051572799682617
v 0.3333333432674408 0.39096516370773315 -0.22051572799682617
v 0.66666668653488159 0.44611150026321411 -0.2048797607421875
v 0.3333333432674408 0.44611150026321411 -0.2048797607421875
v 1 0.5 -0.19999980926513672
v 0 0.5 -0.19999980926513672
v 0 0.38957157731056213 -0.22106361389160156
v 0 0.2878679633140564 -0.28786802291870117
v 0 0.22106350958347321 -0.3895716667175293
v 0.75 0.5 -0.19999980926513672
v 0.5 0.5 -0.19999980926513672
v 0.25 0.5 -0.19999980926513672
v 0 0.20000000298023224 -0.5
v 0.25 0.20000000298023224 -0.5
v 0.5 0.20000000298023224 -0.5
v 0.75 0.20000000298023224 -0.5
v 1 0.22106350958347321 -0.3895716667175293
v 1 0.2878679633140564 -0.28786802291870117
v 1 0.38957157731056213 -0.22106361389160156
v 0 0.20000000298023224 -0.5
v 1 0.20000000298023224 -0.5
v 0 0.20000000298023224 -1
v 1 0.20000000298023224 -1
v 0.75 0.20000000298023224 -0.5
v 0.5 0.20000000298023224 -0.5
v 0.25 0.20000000298023224 -0.5
v 1 0.80000001192092896 -1
v 1 1 -1
v 0 0.80000001192092896 -1
v 0 1 -1
v 0 1 0
v 0 1 -1
v 1 1 0
v 1 1 -1
v 0 0.80000001192092896 -0.5
v 0.3333333432674408 0.79499161243438721 -0.44541120529174805
v 0.66666668653488159 0.79499161243438721 -0.44541120529174805
v 0 0.77893650531768799 -0.3895716667175293
v 0.3333333432674408 0.77893650531768799 -0.3895716667175293
v 0.66666668653488159 0.77893650531768799 -0.3895716667175293
v 0.3333333432674408 0.7510986328125 -0.33583688735961914
v 0.66666668653488159 0.7510986328125 -0.33583688735961914
v 0.3333333432674408 0.7121320366859436 -0.28786802291870117
v 0.66666668653488159 0.7121320366859436 -0.28786802291870117
v 0.3333333432674408 0.66416293382644653 -0.2489013671875
v 0.66666668653488159 0.66416293382644653 -0.2489013671875
v 0 0.61042839288711548 -0.22106361389160156
v 0.3333333432674408 0.61042839288711548 -0.22106361389160156
v 0.66666668653488159 0.61042839288711548 -0.22106361389160156
v 0.3333333432674408 0.5545889139175415 -0.20500850677490234
v 0.66666668653488159 0.5545889139175415 -0.20500850677490234
v 0 0.5 -0.19999980926513672
v 1 0.5 -0.19999980926513672
v 0.25 0.5 -0.19999980926513672
v 0.5 0.5 -0.19999980926513672
v 0.75 0.5 -0.19999980926513672
v 1 0.61042839288711548 -0.22106361389160156
v 1 0.7121320366859436 -0.28786802291870117
v 1 0.77893650531768799 -0.3895716667175293
v 1 0.80000001192092896 -0.5
v 0.75 0.80000001192092896 -0.5
v 0.5 0.80000001192092896 -0.5
v 0.25 0.80000001192092896 -0.5
v 0 0.7121320366859436 -0.28786802291870117
v 1 0.80000001192092896 -0.5
v 0 0.80000001192092896 -0.5
v 1 0.80000001192092896 -1
v 0 0.80000001192092896 -1
v 0.25 0.80000001192092896 -0.5
v 0.5 0.80000001192092896 -0.5
v 0.75 0.80000001192092896 -0.5
v 0 1 0
v 0 0 0
v 0 1 -1
v 0 0 -1
v 0 0.5 -0.19999980926513672
v 0 0.38957157731056213 -0.22106361389160156
v 0 0.2878679633140564 -0.28786802291870117
v 0 0.22106350958347321 -0.3895716667175293
v 0 0.20000000298023224 -0.5
v 0 0.20000000298023224 -1
v 0 0.80000001192092896 -1
v 0 0.80000001192092896 -0.5
v 0 0.77893650531768799 -0.3895716667175293
v 0 0.7121320366859436 -0.28786802291870117
v 0 0.61042839288711548 -0.22106361389160156
v 0 0 -0.19999980926513672
v 1 1 -1
v 1 0 -1
v 1 1 0
v 1 0 0
v 1 0.20000000298023224 -1
v 1 0.20000000298023224 -0.5
v 1 0.22106350958347321 -0.3895716667175293
v 1 0.2878679633140564 -0.28786802291870117
v 1 0.38957157731056213 -0.22106361389160156
v 1 0.5 -0.19999980926513672
v 1 0.61042839288711548 -0.22106361389160156
v 1 0.7121320366859436 -0.28786802291870117
v 1 0.77893650531768799 -0.3895716667175293
v 1 0.80000001192092896 -0.5
v 1 0.80000001192092896 -1
v 1 0 -0.19999980926513672
vt 0.6099998950958252 0.4849998950958252
vt 0.39000004529953003 0.48500007390975952
vt 0.6099998950958252 0.37499994039535522
vt 0.38999992609024048 0.28472417593002319
vt 0.42619118094444275 0.28520417213439941
vt 0.38999992609024048 0.28472417593002319
vt 0.42500001192092896 0.48500004410743713
vt 0.39000004529953003 0.48500007390975952
vt 0.39000004529953003 0.48500007390975952
vt 0.39000004529953003 0.48500007390975952
vt 0.38999992609024048 0.28472417593002319
vt 0.38999992609024048 0.28472417593002319
vt 0.38999992609024048 0.28472417593002319
vt 0.39000004529953003 0.48500007390975952
vt 0.42500001192092896 0.48500004410743713
vt 0.42638149857521057 0.48500004410743713
vt 0.42648118734359741 0.46581295132637024
vt 0.43062326312065125 0.48500004410743713
vt 0.43072220683097839 0.46575668454170227
vt 0.43775954842567444 0.48500004410743713
vt 0.4378572404384613 0.46566206216812134
vt 0.44752222299575806 0.48500001430511475
vt 0.44761821627616882 0.46553260087966919
vt 0.45944547653198242 0.48500001430511475
vt 0.45953935384750366 0.46537449955940247
vt 0.47274127602577209 0.48500001430511475
vt 0.47283282876014709 0.46519815921783447
vt 0.48652786016464233 0.48499998450279236
vt 0.4881359338760376 0.46363815665245056
vt 0.49999997019767761 0.48499998450279236
vt 0.55680996179580688 0.36940476298332214
vt 0.5565447211265564 0.36671182513237
vt 0.44815430045127869 0.28549548983573914
vt 0.43145611882209778 0.28527399897575378
vt 0.49999997019767761 0.48499998450279236
vt 0.49999997019767761 0.48499998450279236
vt 0.50948256254196167 0.45524054765701294
vt 0.42619115114212036 0.28520417213439941
vt 0.42537620663642883 0.4658275842666626
vt 0.42500001192092896 0.48500004410743713
vt 0.42500001192092896 0.48500004410743713
vt 0.43026590347290039 0.48500004410743713
vt 0.44696700572967529 0.48500001430511475
vt 0.47239288687705994 0.48500001430511475
vt 0.42619115114212036 0.28520417213439941
vt 0.42500001192092896 0.48500004410743713
vt 0.42619118094444275 0.28520417213439941
vt 0.42500001192092896 0.48500004410743713
vt 0.42500001192092896 0.48500004410743713
vt 0.42500001192092896 0.48500004410743713
vt 0.42537620663642883 0.4658275842666626
vt 0.57499992847442627 0.48499992489814758
vt 0.6099998950958252 0.4849998950958252
vt 0.57499963045120239 0.37500002980232239
vt 0.6099998950958252 0.37499994039535522
vt 0.6099998950958252 0.37499994039535522
vt 0.6099998950958252 0.37499994039535522
vt 0.6099998950958252 0.4849998950958252
vt 0.6099998950958252 0.4849998950958252
vt 0.57499963045120239 0.37500002980232239
vt 0.57374757528305054 0.45833310484886169
vt 0.57374781370162964 0.48499992489814758
vt 0.56973379850387573 0.37500002980232239
vt 0.56973379850387573 0.45833313465118408
vt 0.56973403692245483 0.48499992489814758
vt 0.56277436017990112 0.45833307504653931
vt 0.56277459859848022 0.48499992489814758
vt 0.55303275585174561 0.45833307504653931
vt 0.55303293466567993 0.48499995470046997
vt 0.54104048013687134 0.45833301544189453
vt 0.54104065895080566 0.48499995470046997
vt 0.55707526206970215 0.37209773063659668
vt 0.52760690450668335 0.45833301544189453
vt 0.5276070237159729 0.48499995470046997
vt 0.51364707946777344 0.45833304524421692
vt 0.51364719867706299 0.48499998450279236
vt 0.55680996179580688 0.36940476298332214
vt 0.49999997019767761 0.48499998450279236
vt 0.50948256254196167 0.45524054765701294
vt 0.49999997019767761 0.48499998450279236
vt 0.49999997019767761 0.48499998450279236
vt 0.5276070237159729 0.48499995470046997
vt 0.55303293466567993 0.48499995470046997
vt 0.56973403692245483 0.48499992489814758
vt 0.57499992847442627 0.48499992489814758
vt 0.57499992847442627 0.48499992489814758
vt 0.57499992847442627 0.48499992489814758
vt 0.57499963045120239 0.43749985098838806
vt 0.55731958150863647 0.37457790970802307
vt 0.57499992847442627 0.48499992489814758
vt 0.57500028610229492 0.37500059604644775
vt 0.57499992847442627 0.48499992489814758
vt 0.57500028610229492 0.37500059604644775
vt 0.57499963045120239 0.43749985098838806
vt 0.57499992847442627 0.48499992489814758
vt 0.57499992847442627 0.48499992489814758
vt 0.6099998950958252 0.37499994039535522
vt 0.38999992609024048 0.28472417593002319
vt 0.6099998950958252 0.37499994039535522
vt 0.38999992609024048 0.28472417593002319
vt 0.55680996179580688 0.36940476298332214
vt 0.5565447211265564 0.36671182513237
vt 0.44815430045127869 0.28549548983573914
vt 0.43145611882209778 0.28527399897575378
vt 0.42619115114212036 0.28520417213439941
vt 0.42619118094444275 0.28520417213439941
vt 0.57500028610229492 0.37500059604644775
vt 0.57500028610229492 0.37500059604644775
vt 0.56973409652709961 0.37500032782554626
vt 0.55731958150863647 0.37457790970802307
vt 0.55707526206970215 0.37209773063659668
vt 0.38999992609024048 0.28472417593002319
vt 0.6099998950958252 0.4849998950958252
vt 0.39000004529953003 0.48500007390975952
vt 0.6099998950958252 0.4849998950958252
vt 0.39000004529953003 0.48500007390975952
vt 0.42500001192092896 0.48500004410743713
vt 0.42500001192092896 0.48500004410743713
vt 0.43026590347290039 0.48500004410743713
vt 0.44696700572967529 0.48500001430511475
vt 0.47239288687705994 0.48500001430511475
vt 0.49999997019767761 0.48499998450279236
vt 0.5276070237159729 0.48499995470046997
vt 0.55303293466567993 0.48499995470046997
vt 0.56973403692245483 0.48499992489814758
vt 0.57499992847442627 0.48499992489814758
vt 0.57499992847442627 0.48499992489814758
vt 0.39000004529953003 0.48500007390975952
vn 0 0 1
vn 0 0 1
vn 0 0 1
vn 0 0 1
vn 0 0 -1
vn 0 0 -1
vn 0 0 -1
vn 0 0 -1
vn 0 -1 0
vn 0 -1 0
vn 0 -1 0
vn 0 -1 0
vn 0 -1 0
vn 0 -1 0
vn 0 1 0
vn 0 0.98158019781112671 -0.19105048477649689
vn 0 0.98158019781112671 -0.19105048477649689
vn 0 0.92502325773239136 -0.37991040945053101
vn 0 0.92502325773239136 -0.37991040945053101
vn 0 0.82987266778945923 -0.55795282125473022
vn 0 0.82987266778945923 -0.55795282125473022
vn 0 0.69970357418060303 -0.71443325281143188
vn 0 0.69970357418060303 -0.71443325281143188
vn 0 0.54072701930999756 -0.8411981463432312
vn 0 0.54072701930999756 -0.8411981463432312
vn 0 0.36344948410987854 -0.93161392211914062
vn 0 0.36344948410987854 -0.93161392211914062
vn 0 0.17962829768657684 -0.98373454809188843
vn 0 0.17962829768657684 -0.98373454809188843
vn 0 0 -1
vn 0 0 -1
vn 0 0.36809471249580383 -0.92978829145431519
vn 0 0.70710676908493042 -0.70710676908493042
vn 0 0.92978829145431519 -0.36809471249580383
vn 0 0 -1
vn 0 0 -1
vn 0 0 -1
vn 0 1 0
vn 0 1 0
vn 0 1 0
vn 0 1 0
vn 0 0.92978829145431519 -0.36809471249580383
vn 0 0.70710676908493042 -0.70710676908493042
vn 0 0.36809471249580383 -0.92978829145431519
vn 0 1 0
vn 0 1 0
vn 0 1 0
vn 0 1 0
vn 0 1 0
vn 0 1 0
vn 0 1 0
vn 0 0 -1
vn 0 0 -1
vn 0 0 -1
vn 0 0 -1
vn 0 1 0
vn 0 1 0
vn 0 1 0
vn 0 1 0
vn 0 -1 0
vn 0 -0.98330539464950562 -0.18196305632591248
vn 0 -0.98330539464950562 -0.18196305632591248
vn 0 -0.92978829145431519 -0.36809471249580383
vn 0 -0.92978829145431519 -0.36809471249580383
vn 0 -0.92978829145431519 -0.36809471249580383
vn 0 -0.83699548244476318 -0.54720973968505859
vn 0 -0.83699548244476318 -0.54720973968505859
vn 0 -0.70710676908493042 -0.70710676908493042
vn 0 -0.70710676908493042 -0.70710676908493042
vn 0 -0.54720973968505859 -0.83699548244476318
vn 0 -0.54720973968505859 -0.83699548244476318
vn 0 -0.36809471249580383 -0.92978829145431519
vn 0 -0.36809471249580383 -0.92978829145431519
vn 0 -0.36809471249580383 -0.92978829145431519
vn 0 -0.18196305632591248 -0.98330539464950562
vn 0 -0.18196305632591248 -0.98330539464950562
vn 0 0 -1
vn 0 0 -1
vn 0 0 -1
vn 0 0 -1
vn 0 0 -1
vn 0 -0.36809471249580383 -0.92978829145431519
vn 0 -0.70710676908493042 -0.70710676908493042
vn 0 -0.92978829145431519 -0.36809471249580383
vn 0 -1 0
vn 0 -1 0
vn 0 -1 0
vn 0 -1 0
vn 0 -0.70710676908493042 -0.70710676908493042
vn 0 -1 0
vn 0 -1 0
vn 0 -1 0
vn 0 -1 0
vn 0 -1 0
vn 0 -1 0
vn 0 -1 0
vn -1 0 0
vn -1 0 0
vn -1 0 0
vn -1 0 0
vn -1 0 0
vn -1 0 0
vn -1 0 0
vn -1 0 0
vn -1 0 0
vn -1 0 0
vn -1 0 0
vn -1 0 0
vn -1 0 0
vn -1 0 0
vn -1 0 0
vn -1 0 0
vn 1 0 0
vn 1 0 0
vn 1 0 0
vn 1 0 0
vn 1 0 0
vn 1 0 0
vn 1 0 0
vn 1 0 0
vn 1 0 0
vn 1 0 0
vn 1 0 0
vn 1 0 0
vn 1 0 0
vn 1 0 0
vn 1 0 0
vn 1 0 0
f 2/2/2 1/1/1 3/3/3 4/4/4
f 6/6/6 5/5/5 7/7/7 8/8/8
f 14/14/14 9/9/9 11/11/11 13/13/13
f 10/10/10 14/14/14 13/13/13 12/12/12
f 19/19/19 18/18/18 16/16/16 17/17/17
f 21/21/21 20/20/20 18/18/18 19/19/19
f 23/23/23 22/22/22 20/20/20 21/21/21
f 25/25/25 24/24/24 22/22/22 23/23/23
f 27/27/27 26/26/26 24/24/24 25/25/25
f 29/29/29 28/28/28 26/26/26 27/27/27
f 41/41/41 16/16/16 15/15/15
f 42/42/42 15/15/15 16/16/16
f 40/40/40 16/16/16 41/41/41
f 42/42/42 18/18/18 20/20/20 43/43/43
f 16/16/16 18/18/18 42/42/42
f 39/39/39 17/17/17 40/40/40
f 17/17/17 16/16/16 40/40/40
f 17/17/17 39/39/39 38/38/38
f 38/38/38 34/34/34 17/17/17
f 34/34/34 21/21/21 19/19/19
f 21/21/21 34/34/34 33/33/33
f 23/23/23 21/21/21 33/33/33
f 17/17/17 34/34/34 19/19/19
f 22/22/22 43/43/43 20/20/20
f 22/22/22 24/24/24 43/43/43
f 44/44/44 43/43/43 24/24/24
f 26/26/26 44/44/44 24/24/24
f 28/28/28 35/35/35 30/30/30
f 28/28/28 44/44/44 26/26/26
f 28/28/28 36/36/36 35/35/35
f 30/30/30 44/44/44 28/28/28
f 32/32/32 25/25/25 23/23/23 33/33/33
f 29/29/29 27/27/27 32/32/32
f 25/25/25 32/32/32 27/27/27
f 37/37/37 36/36/36 29/29/29
f 29/29/29 31/31/31 37/37/37
f 32/32/32 31/31/31 29/29/29
f 36/36/36 28/28/28 29/29/29
f 47/47/47 45/45/45 51/51/51
f 47/47/47 51/51/51 50/50/50
f 49/49/49 48/48/48 50/50/50
f 47/47/47 50/50/50 48/48/48
f 49/49/49 46/46/46 48/48/48
f 53/53/53 52/52/52 54/54/54 55/55/55
f 57/57/57 56/56/56 58/58/58 59/59/59
f 65/65/65 64/64/64 61/61/61 62/62/62
f 67/67/67 66/66/66 64/64/64 65/65/65
f 69/69/69 68/68/68 66/66/66 67/67/67
f 71/71/71 70/70/70 68/68/68 69/69/69
f 74/74/74 73/73/73 70/70/70 71/71/71
f 76/76/76 75/75/75 73/73/73 74/74/74
f 88/88/88 61/61/61 60/60/60
f 63/63/63 60/60/60 61/61/61
f 87/87/87 61/61/61 88/88/88
f 63/63/63 64/64/64 66/66/66 89/89/89
f 66/66/66 68/68/68 89/89/89
f 61/61/61 64/64/64 63/63/63
f 86/86/86 62/62/62 87/87/87
f 62/62/62 61/61/61 87/87/87
f 62/62/62 86/86/86 85/85/85
f 85/85/85 84/84/84 62/62/62
f 83/83/83 67/67/67 65/65/65 84/84/84
f 62/62/62 84/84/84 65/65/65
f 68/68/68 70/70/70 89/89/89
f 73/73/73 72/72/72 70/70/70
f 89/89/89 70/70/70 72/72/72
f 75/75/75 72/72/72 73/73/73
f 75/75/75 79/79/79 77/77/77
f 79/79/79 75/75/75 80/80/80
f 72/72/72 75/75/75 77/77/77
f 75/75/75 76/76/76 80/80/80
f 83/83/83 71/71/71 69/69/69
f 74/74/74 71/71/71 82/82/82
f 83/83/83 82/82/82 71/71/71
f 67/67/67 83/83/83 69/69/69
f 78/78/78 81/81/81 76/76/76
f 80/80/80 76/76/76 81/81/81
f 76/76/76 82/82/82 78/78/78
f 74/74/74 82/82/82 76/76/76
f 92/92/92 90/90/90 96/96/96
f 92/92/92 96/96/96 95/95/95
f 94/94/94 93/93/93 95/95/95
f 92/92/92 95/95/95 93/93/93
f 94/94/94 91/91/91 93/93/93
f 98/98/98 97/97/97 101/101/101
f 111/111/111 101/101/101 97/97/97
f 97/97/97 110/110/110 111/111/111
f 110/110/110 97/97/97 109/109/109
f 103/103/103 112/112/112 98/98/98
f 98/98/98 102/102/102 103/103/103
f 102/102/102 98/98/98 101/101/101
f 104/104/104 112/112/112 103/103/103
f 108/108/108 109/109/109 97/97/97
f 108/108/108 99/99/99 107/107/107
f 108/108/108 97/97/97 99/99/99
f 112/112/112 105/105/105 100/100/100
f 105/105/105 106/106/106 100/100/100
f 104/104/104 105/105/105 112/112/112
f 126/126/126 127/127/127 113/113/113
f 126/126/126 115/115/115 125/125/125
f 115/115/115 126/126/126 113/113/113
f 118/118/118 114/114/114 117/117/117
f 128/128/128 114/114/114 118/118/118
f 119/119/119 128/128/128 118/118/118
f 115/115/115 123/123/123 124/124/124
f 116/116/116 122/122/122 115/115/115
f 123/123/123 115/115/115 122/122/122
f 115/115/115 124/124/124 125/125/125
f 116/116/116 120/120/120 121/121/121
f 120/120/120 116/116/116 128/128/128
f 116/116/116 121/121/121 122/122/122
f 119/119/119 120/120/120 128/128/128
