# Rhino

mtllib 6.mtl
usemtl Material.003
v 1 0 0
v 1 0 -1
v 0 0 0
v 0 0 -1
v 0 1 -0.80000001192092896
v 0 1 -1
v 1 1 -0.80000001192092896
v 1 1 -1
v 1 0 -1
v 1 1 -1
v 0 0 -1
v 0 1 -1
v 0 0.20000000298023224 -1
v 1 0.20000000298023224 -1
v 1 0.5 -0.80000001192092896
v 0.66666674613952637 0.44268485903739929 -0.79447406530380249
v 0.33333325386047363 0.44268485903739929 -0.79447406530380249
v 0.66666674613952637 0.38602688908576965 -0.77750700712203979
v 0.33333325386047363 0.38602688908576965 -0.77750700712203979
v 0.66666674613952637 0.33261415362358093 -0.74896180629730225
v 0.33333325386047363 0.33261415362358093 -0.74896180629730225
v 0.66666674613952637 0.28567001223564148 -0.709911048412323
v 0.33333325386047363 0.28567001223564148 -0.709911048412323
v 0.66666674613952637 0.24764056503772736 -0.66221809387207031
v 0.33333325386047363 0.24764056503772736 -0.66221809387207031
v 0.66666674613952637 0.22051583230495453 -0.60903483629226685
v 0.33333325386047363 0.22051583230495453 -0.60903483629226685
v 0.66666674613952637 0.20487962663173676 -0.55388849973678589
v 0.33333325386047363 0.20487962663173676 -0.55388849973678589
v 1 0.20000000298023224 -0.5
v 0 0.20000000298023224 -0.5
v 0 0.22106350958347321 -0.61042839288711548
v 0 0.2878679633140564 -0.7121320366859436
v 0 0.38957157731056213 -0.77893650531768799
v 0.75 0.20000000298023224 -0.5
v 0.5 0.20000000298023224 -0.5
v 0.25 0.20000000298023224 -0.5
v 0 0.5 -0.80000001192092896
v 0.25 0.5 -0.80000001192092896
v 0.5 0.5 -0.80000001192092896
v 0.75 0.5 -0.80000001192092896
v 1 0.38957157731056213 -0.77893650531768799
v 1 0.2878679633140564 -0.7121320366859436
v 1 0.22106350958347321 -0.61042839288711548
v 0 0.5 -0.80000001192092896
v 1 0.5 -0.80000001192092896
v 0 1 -0.80000001192092896
v 1 1 -0.80000001192092896
v 0.75 0.5 -0.80000001192092896
v 0.5 0.5 -0.80000001192092896
v 0.25 0.5 -0.80000001192092896
v 1 1 -0.20000000298023224
v 1 1 0
v 0 1 -0.20000000298023224
v 0 1 0
v 0 0 0
v 0 1 0
v 1 0 0
v 1 1 0
v 0 0.5 -0.20000000298023224
v 0.33333325386047363 0.44268485903739929 -0.20552593469619751
v 0.66666674613952637 0.44268485903739929 -0.20552593469619751
v 0.33333325386047363 0.38602688908576965 -0.2224930077791214
v 0.66666674613952637 0.38602688908576965 -0.2224930077791214
v 0.33333325386047363 0.33261415362358093 -0.25103819370269775
v 0.66666674613952637 0.33261415362358093 -0.25103819370269775
v 0.33333325386047363 0.28567001223564148 -0.29008892178535461
v 0.66666674613952637 0.28567001223564148 -0.29008892178535461
v 0.33333325386047363 0.24764056503772736 -0.3377818763256073
v 0.66666674613952637 0.24764056503772736 -0.3377818763256073
v 0.33333325386047363 0.22051583230495453 -0.39096516370773315
v 0.66666674613952637 0.22051583230495453 -0.39096516370773315
v 0.33333325386047363 0.20487962663173676 -0.44611150026321411
v 0.66666674613952637 0.20487962663173676 -0.44611150026321411
v 0 0.20000000298023224 -0.5
v 1 0.20000000298023224 -0.5
v 0.25 0.20000000298023224 -0.5
v 0.5 0.20000000298023224 -0.5
v 0.75 0.20000000298023224 -0.5
v 1 0.22106350958347321 -0.38957157731056213
v 1 0.2878679633140564 -0.2878679633140564
v 1 0.38957157731056213 -0.22106350958347321
v 1 0.5 -0.20000000298023224
v 0.75 0.5 -0.20000000298023224
v 0.5 0.5 -0.20000000298023224
v 0.25 0.5 -0.20000000298023224
v 0 0.38957157731056213 -0.22106350958347321
v 0 0.2878679633140564 -0.2878679633140564
v 0 0.22106350958347321 -0.38957157731056213
v 1 0.5 -0.20000000298023224
v 0 0.5 -0.20000000298023224
v 1 1 -0.20000000298023224
v 0 1 -0.20000000298023224
v 0.25 0.5 -0.20000000298023224
v 0.5 0.5 -0.20000000298023224
v 0.75 0.5 -0.20000000298023224
v 0 0 0
v 0 0 -1
v 0 1 0
v 0 1 -1
v 0 0.20000000298023224 -0.5
v 0 0.22106350958347321 -0.61042839288711548
v 0 0.2878679633140564 -0.7121320366859436
v 0 0.38957157731056213 -0.77893650531768799
v 0 0.5 -0.80000001192092896
v 0 1 -0.80000001192092896
v 0 1 -0.20000000298023224
v 0 0.5 -0.20000000298023224
v 0 0.38957157731056213 -0.22106350958347321
v 0 0.2878679633140564 -0.2878679633140564
v 0 0.22106350958347321 -0.38957157731056213
v 0 0.20000000298023224 -1
v 1 1 0
v 1 1 -1
v 1 0 0
v 1 0 -1
v 1 1 -0.80000001192092896
v 1 0.5 -0.80000001192092896
v 1 0.38957157731056213 -0.77893650531768799
v 1 0.2878679633140564 -0.7121320366859436
v 1 0.22106350958347321 -0.61042839288711548
v 1 0.20000000298023224 -0.5
v 1 0.22106350958347321 -0.38957157731056213
v 1 0.2878679633140564 -0.2878679633140564
v 1 0.38957157731056213 -0.22106350958347321
v 1 0.5 -0.20000000298023224
v 1 1 -0.20000000298023224
v 1 0.20000000298023224 -1
vt 0.21875 0.64717632532119751
vt 0.24460393190383911 0.64717608690261841
vt 0.21875 0.73792189359664917
vt 0.24460393190383911 0.73792165517807007
vt 0.3997504711151123 0.50784176588058472
vt 0.36717316508293152 0.50391340255737305
vt 0.40000000596046448 0.625
vt 0.375 0.625
vt 0.75539624691009521 0.64717608690261841
vt 0.75326389074325562 0.64717602729797363
vt 0.75539618730545044 0.73792159557342529
vt 0.75334662199020386 0.74383920431137085
vt 0.75539499521255493 0.73890131711959839
vt 0.75523906946182251 0.64717608690261841
vt 0.7582848072052002 0.64717608690261841
vt 0.75850766897201538 0.68154937028884888
vt 0.75850760936737061 0.71592271327972412
vt 0.75913584232330322 0.68154942989349365
vt 0.75913584232330322 0.71592271327972412
vt 0.76017296314239502 0.68154942989349365
vt 0.76017296314239502 0.7159227728843689
vt 0.76157957315444946 0.68154942989349365
vt 0.76157957315444946 0.7159227728843689
vt 0.76328831911087036 0.68154942989349365
vt 0.76328831911087036 0.7159227728843689
vt 0.76518666744232178 0.68154948949813843
vt 0.76518666744232178 0.71592283248901367
vt 0.76714915037155151 0.68154948949813843
vt 0.76714915037155151 0.71592283248901367
vt 0.76906204223632812 0.64717620611190796
vt 0.76906204223632812 0.73901885747909546
vt 0.76513701677322388 0.73952400684356689
vt 0.76149940490722656 0.74122333526611328
vt 0.75908321142196655 0.74381911754608154
vt 0.76906204223632812 0.67295622825622559
vt 0.76906204223632812 0.69873619079589844
vt 0.76906204223632812 0.72451621294021606
vt 0.75828468799591064 0.74410170316696167
vt 0.75828474760055542 0.72451603412628174
vt 0.75828474760055542 0.69873607158660889
vt 0.7582848072052002 0.67295604944229126
vt 0.75908350944519043 0.64717608690261841
vt 0.76149982213973999 0.64717614650726318
vt 0.76513701677322388 0.64717614650726318
vt 0.32649442553520203 0.50782680511474609
vt 0.32649442553520203 0.625
vt 0.38239103555679321 0.50999999046325684
vt 0.37878549098968506 0.62442457675933838
vt 0.32649442553520203 0.59375
vt 0.32649442553520203 0.5625
vt 0.32649442553520203 0.53125
vt 0.47499999403953552 0.625
vt 0.5 0.625
vt 0.47500002384185791 0.5
vt 0.50000005960464478 0.5
vt 0.87504363059997559 0.73857253789901733
vt 0.84333503246307373 0.74410903453826904
vt 0.875 0.64717638492584229
vt 0.84375 0.64717632532119751
vt 0.77955710887908936 0.74410843849182129
vt 0.7793881893157959 0.715923011302948
vt 0.7793881893157959 0.68154966831207275
vt 0.77881324291229248 0.715923011302948
vt 0.77881324291229248 0.68154966831207275
vt 0.77782630920410156 0.71592295169830322
vt 0.77782630920410156 0.68154966831207275
vt 0.77646392583847046 0.71592295169830322
vt 0.77646392583847046 0.68154960870742798
vt 0.77479088306427002 0.71592295169830322
vt 0.77479088306427002 0.68154960870742798
vt 0.77291810512542725 0.71592289209365845
vt 0.77291810512542725 0.6815495491027832
vt 0.77097028493881226 0.71592289209365845
vt 0.77097028493881226 0.6815495491027832
vt 0.76906204223632812 0.73901885747909546
vt 0.76906204223632812 0.64717620611190796
vt 0.76906204223632812 0.72451621294021606
vt 0.76906204223632812 0.69873619079589844
vt 0.76906204223632812 0.67295622825622559
vt 0.77296721935272217 0.64717626571655273
vt 0.77654159069061279 0.64717632532119751
vt 0.77886229753494263 0.64717632532119751
vt 0.77955710887908936 0.64717638492584229
vt 0.77955710887908936 0.67295634746551514
vt 0.77955710887908936 0.69873631000518799
vt 0.77955710887908936 0.72451633214950562
vt 0.77886199951171875 0.74400925636291504
vt 0.77654159069061279 0.7413564920425415
vt 0.77296721935272217 0.73959958553314209
vt 0.77955710887908936 0.64717638492584229
vt 0.4749029278755188 0.45016938447952271
vt 0.77932202816009521 0.64717632532119751
vt 0.67788201570510864 0.65773892402648926
vt 0.62722831964492798 0.58734285831451416
vt 0.77955710887908936 0.69873631000518799
vt 0.77955710887908936 0.67295634746551514
vt 0.58184373378753662 0.44681873917579651
vt 0.75539618730545044 0.73792159557342529
vt 0.5044780969619751 0.48074832558631897
vt 0.56678223609924316 0.61931067705154419
vt 0.65871453285217285 0.64289873838424683
vt 0.76513701677322388 0.73952400684356689
vt 0.76149940490722656 0.74122333526611328
vt 0.75908321142196655 0.74381911754608154
vt 0.63890624046325684 0.64645475149154663
vt 0.40000003576278687 0.5
vt 0.47503131628036499 0.4982953667640686
vt 0.49487200379371643 0.44952920079231262
vt 0.49484044313430786 0.44440996646881104
vt 0.47271999716758728 0.45019832253456116
vt 0.45174315571784973 0.45047655701637268
vt 0.75539499521255493 0.73890131711959839
vt 0.8162350058555603 0.64717632532119751
vt 0.5641319751739502 0.63608801364898682
vt 0.84895831346511841 0.64717638492584229
vt 0.75539624691009521 0.64717608690261841
vt 0.37504267692565918 0.6243751049041748
vt 0.61435467004776001 0.63978403806686401
vt 0.75908350944519043 0.64717608690261841
vt 0.76149982213973999 0.64717614650726318
vt 0.76513701677322388 0.64717614650726318
vt 0.77312469482421875 0.64717626571655273
vt 0.796875 0.64717632532119751
vt 0.828125 0.64717632532119751
vt 0.859375 0.64717632532119751
vt 0.83333331346511841 0.64717632532119751
vt 0.78125 0.64717632532119751
vt 0.75523906946182251 0.64717608690261841
vn 0 -1 0
vn 0 -1 0
vn 0 -1 0
vn 0 -1 0
vn 0 1 0
vn 0 1 0
vn 0 1 0
vn 0 1 0
vn 0 0 -1
vn 0 0 -1
vn 0 0 -1
vn 0 0 -1
vn 0 0 -1
vn 0 0 -1
vn 0 0 1
vn 0 0.19105048477649689 0.98158019781112671
vn 0 0.19105048477649689 0.98158019781112671
vn 0 0.37991040945053101 0.92502325773239136
vn 0 0.37991040945053101 0.92502325773239136
vn 0 0.55795282125473022 0.82987266778945923
vn 0 0.55795282125473022 0.82987266778945923
vn 0 0.71443325281143188 0.69970357418060303
vn 0 0.71443325281143188 0.69970357418060303
vn 0 0.8411981463432312 0.54072701930999756
vn 0 0.8411981463432312 0.54072701930999756
vn 0 0.93161392211914062 0.36344948410987854
vn 0 0.93161392211914062 0.36344948410987854
vn 0 0.98373454809188843 0.17962829768657684
vn 0 0.98373454809188843 0.17962829768657684
vn 0 1 0
vn 0 1 0
vn 0 0.92978829145431519 0.36809471249580383
vn 0 0.70710676908493042 0.70710676908493042
vn 0 0.36809471249580383 0.92978829145431519
vn 0 1 0
vn 0 1 0
vn 0 1 0
vn 0 0 1
vn 0 0 1
vn 0 0 1
vn 0 0 1
vn 0 0.36809471249580383 0.92978829145431519
vn 0 0.70710676908493042 0.70710676908493042
vn 0 0.92978829145431519 0.36809471249580383
vn 0 0 1
vn 0 0 1
vn 0 0 1
vn 0 0 1
vn 0 0 1
vn 0 0 1
vn 0 0 1
vn 0 1 0
vn 0 1 0
vn 0 1 0
vn 0 1 0
vn 0 0 1
vn 0 0 1
vn 0 0 1
vn 0 0 1
vn 0 0 -1
vn 0 0.19105048477649689 -0.98158019781112671
vn 0 0.19105048477649689 -0.98158019781112671
vn 0 0.37991040945053101 -0.92502325773239136
vn 0 0.37991040945053101 -0.92502325773239136
vn 0 0.55795282125473022 -0.82987266778945923
vn 0 0.55795282125473022 -0.82987266778945923
vn 0 0.71443325281143188 -0.69970357418060303
vn 0 0.71443325281143188 -0.69970357418060303
vn 0 0.8411981463432312 -0.54072701930999756
vn 0 0.8411981463432312 -0.54072701930999756
vn 0 0.93161392211914062 -0.36344948410987854
vn 0 0.93161392211914062 -0.36344948410987854
vn 0 0.98373454809188843 -0.17962829768657684
vn 0 0.98373454809188843 -0.17962829768657684
vn 0 1 0
vn 0 1 0
vn 0 1 0
vn 0 1 0
vn 0 1 0
vn 0 0.92978829145431519 -0.36809471249580383
vn 0 0.70710676908493042 -0.70710676908493042
vn 0 0.36809471249580383 -0.92978829145431519
vn 0 0 -1
vn 0 0 -1
vn 0 0 -1
vn 0 0 -1
vn 0 0.36809471249580383 -0.92978829145431519
vn 0 0.70710676908493042 -0.70710676908493042
vn 0 0.92978829145431519 -0.36809471249580383
vn 0 0 -1
vn 0 0 -1
vn 0 0 -1
vn 0 0 -1
vn 0 0 -1
vn 0 0 -1
vn 0 0 -1
vn -1 0 0
vn -1 0 0
vn -1 0 0
vn -1 0 0
vn -1 0 0
vn -1 0 0
vn -1 0 0
vn -1 0 0
vn -1 0 0
vn -1 0 0
vn -1 0 0
vn -1 0 0
vn -1 0 0
vn -1 0 0
vn -1 0 0
vn -1 0 0
vn 1 0 0
vn 1 0 0
vn 1 0 0
vn 1 0 0
vn 1 0 0
vn 1 0 0
vn 1 0 0
vn 1 0 0
vn 1 0 0
vn 1 0 0
vn 1 0 0
vn 1 0 0
vn 1 0 0
vn 1 0 0
vn 1 0 0
vn 1 0 0
f 2/2/2 1/1/1 3/3/3 4/4/4
f 6/6/6 5/5/5 7/7/7 8/8/8
f 14/14/14 9/9/9 11/11/11 13/13/13
f 10/10/10 14/14/14 13/13/13 12/12/12
f 19/19/19 18/18/18 16/16/16 17/17/17
f 21/21/21 20/20/20 18/18/18 19/19/19
f 23/23/23 22/22/22 20/20/20 21/21/21
f 25/25/25 24/24/24 22/22/22 23/23/23
f 27/27/27 26/26/26 24/24/24 25/25/25
f 29/29/29 28/28/28 26/26/26 27/27/27
f 41/41/41 16/16/16 15/15/15
f 42/42/42 15/15/15 16/16/16
f 40/40/40 16/16/16 41/41/41
f 42/42/42 18/18/18 20/20/20 43/43/43
f 16/16/16 18/18/18 42/42/42
f 39/39/39 17/17/17 40/40/40
f 17/17/17 16/16/16 40/40/40
f 17/17/17 39/39/39 38/38/38
f 38/38/38 34/34/34 17/17/17
f 34/34/34 21/21/21 19/19/19
f 21/21/21 34/34/34 33/33/33
f 23/23/23 21/21/21 33/33/33
f 17/17/17 34/34/34 19/19/19
f 22/22/22 43/43/43 20/20/20
f 22/22/22 24/24/24 43/43/43
f 44/44/44 43/43/43 24/24/24
f 26/26/26 44/44/44 24/24/24
f 28/28/28 35/35/35 30/30/30
f 28/28/28 44/44/44 26/26/26
f 28/28/28 36/36/36 35/35/35
f 30/30/30 44/44/44 28/28/28
f 32/32/32 25/25/25 23/23/23 33/33/33
f 29/29/29 27/27/27 32/32/32
f 25/25/25 32/32/32 27/27/27
f 37/37/37 36/36/36 29/29/29
f 29/29/29 31/31/31 37/37/37
f 32/32/32 31/31/31 29/29/29
f 36/36/36 28/28/28 29/29/29
f 47/47/47 45/45/45 51/51/51
f 47/47/47 51/51/51 50/50/50
f 49/49/49 48/48/48 50/50/50
f 47/47/47 50/50/50 48/48/48
f 49/49/49 46/46/46 48/48/48
f 53/53/53 52/52/52 54/54/54 55/55/55
f 57/57/57 56/56/56 58/58/58 59/59/59
f 64/64/64 63/63/63 61/61/61 62/62/62
f 66/66/66 65/65/65 63/63/63 64/64/64
f 68/68/68 67/67/67 65/65/65 66/66/66
f 70/70/70 69/69/69 67/67/67 68/68/68
f 72/72/72 71/71/71 69/69/69 70/70/70
f 74/74/74 73/73/73 71/71/71 72/72/72
f 86/86/86 61/61/61 60/60/60
f 87/87/87 60/60/60 61/61/61
f 85/85/85 61/61/61 86/86/86
f 87/87/87 63/63/63 65/65/65 88/88/88
f 61/61/61 63/63/63 87/87/87
f 84/84/84 62/62/62 85/85/85
f 62/62/62 61/61/61 85/85/85
f 62/62/62 84/84/84 83/83/83
f 83/83/83 82/82/82 62/62/62
f 82/82/82 66/66/66 64/64/64
f 66/66/66 82/82/82 81/81/81
f 68/68/68 66/66/66 81/81/81
f 62/62/62 82/82/82 64/64/64
f 67/67/67 88/88/88 65/65/65
f 67/67/67 69/69/69 88/88/88
f 89/89/89 88/88/88 69/69/69
f 71/71/71 89/89/89 69/69/69
f 73/73/73 77/77/77 75/75/75
f 73/73/73 89/89/89 71/71/71
f 73/73/73 78/78/78 77/77/77
f 75/75/75 89/89/89 73/73/73
f 80/80/80 70/70/70 68/68/68 81/81/81
f 74/74/74 72/72/72 80/80/80
f 70/70/70 80/80/80 72/72/72
f 79/79/79 78/78/78 74/74/74
f 74/74/74 76/76/76 79/79/79
f 80/80/80 76/76/76 74/74/74
f 78/78/78 73/73/73 74/74/74
f 92/92/92 90/90/90 96/96/96
f 92/92/92 96/96/96 95/95/95
f 94/94/94 93/93/93 95/95/95
f 92/92/92 95/95/95 93/93/93
f 94/94/94 91/91/91 93/93/93
f 98/98/98 97/97/97 101/101/101
f 111/111/111 101/101/101 97/97/97
f 97/97/97 110/110/110 111/111/111
f 110/110/110 97/97/97 109/109/109
f 103/103/103 112/112/112 98/98/98
f 98/98/98 102/102/102 103/103/103
f 102/102/102 98/98/98 101/101/101
f 104/104/104 112/112/112 103/103/103
f 108/108/108 109/109/109 97/97/97
f 108/108/108 99/99/99 107/107/107
f 108/108/108 97/97/97 99/99/99
f 112/112/112 105/105/105 100/100/100
f 105/105/105 106/106/106 100/100/100
f 104/104/104 105/105/105 112/112/112
f 126/126/126 127/127/127 113/113/113
f 126/126/126 115/115/115 125/125/125
f 115/115/115 126/126/126 113/113/113
f 118/118/118 114/114/114 117/117/117
f 128/128/128 114/114/114 118/118/118
f 119/119/119 128/128/128 118/118/118
f 115/115/115 123/123/123 124/124/124
f 116/116/116 122/122/122 115/115/115
f 123/123/123 115/115/115 122/122/122
f 115/115/115 124/124/124 125/125/125
f 116/116/116 120/120/120 121/121/121
f 120/120/120 116/116/116 128/128/128
f 116/116/116 121/121/121 122/122/122
f 119/119/119 120/120/120 128/128/128
